<svg xmlns="http://www.w3.org/2000/svg" width="53" height="34" fill="none" viewBox="0 0 53 34"><g filter="url(#a)"><path fill="#FDC921" d="M15.01 30.348q-.664 2.267-3.454 3.022-2.79.63-4.649.63-1.726 0-3.453-.378Q0 32.741 0 30.348V3.778Q0 1.51 5.712.504A32 32 0 0 1 11.424 0q2.922 0 5.844.504Q22.98 1.51 22.98 3.778zm30.02 0q-.664 2.267-3.454 3.022-2.79.63-4.649.63-1.726 0-3.453-.378-3.454-.881-3.454-3.274V3.778q0-2.267 5.712-3.274A32 32 0 0 1 41.444 0q2.922 0 5.844.504Q53 1.51 53 3.778z"/></g><defs><filter id="a" width="61" height="42" x="-4" y="-4" color-interpolation-filters="sRGB" filterUnits="userSpaceOnUse"><feFlood flood-opacity="0" result="BackgroundImageFix"/><feBlend in="SourceGraphic" in2="BackgroundImageFix" result="shape"/><feColorMatrix in="SourceAlpha" result="hardAlpha" values="0 0 0 0 0 0 0 0 0 0 0 0 0 0 0 0 0 0 127 0"/><feOffset dx="4" dy="4"/><feGaussianBlur stdDeviation="2"/><feComposite in2="hardAlpha" k2="-1" k3="1" operator="arithmetic"/><feColorMatrix values="0 0 0 0 0.613333 0 0 0 0 0.356055 0 0 0 0 0.0260667 0 0 0 0.28 0"/><feBlend in2="shape" result="effect1_innerShadow_317_657"/><feColorMatrix in="SourceAlpha" result="hardAlpha" values="0 0 0 0 0 0 0 0 0 0 0 0 0 0 0 0 0 0 127 0"/><feOffset dx="-4" dy="-4"/><feGaussianBlur stdDeviation="2"/><feComposite in2="hardAlpha" k2="-1" k3="1" operator="arithmetic"/><feColorMatrix values="0 0 0 0 0.611765 0 0 0 0 0.356863 0 0 0 0 0.027451 0 0 0 0.28 0"/><feBlend in2="effect1_innerShadow_317_657" result="effect2_innerShadow_317_657"/></filter></defs></svg>