<svg xmlns="http://www.w3.org/2000/svg" width="136" height="32" fill="none" viewBox="0 0 136 32"><path fill="#fff" fill-rule="evenodd" d="M69.774 1.171C70.444.535 71.223.22 72.23.22s1.786.316 2.457.952 1.004 1.374 1.004 2.329-.334 1.693-1.004 2.329c-.671.636-1.45.952-2.457.952-1.008 0-1.786-.316-2.457-.952s-1.004-1.375-1.004-2.33.334-1.693 1.005-2.329m.525.397C70.788.99 71.516.766 72.23.766c.726 0 1.444.341 1.923.793.61.465.846 1.157.846 1.941 0 .795-.358 1.476-.837 1.932-.49.577-1.218.802-1.932.802-.726 0-1.444-.341-1.923-.793-.61-.465-.847-1.157-.847-1.941 0-.795.359-1.476.838-1.932" clip-rule="evenodd"/><path fill="#fff" d="M59.077 6.672V.328h.692v6.344z"/><path fill="#fff" fill-rule="evenodd" d="M38.735 1.171c.671-.636 1.45-.952 2.457-.952q.663-.001 1.333.316c.42.2.727.39.94.656l-.42.397c-.473-.51-1.064-.713-1.853-.713-.712 0-1.439.224-1.928.797-.606.465-.84 1.156-.84 1.937 0 .786.237 1.48.85 1.945.582.441 1.185.79 1.918.79a3 3 0 0 0 1.111-.186c.335-.13.636-.33.932-.612a1.87 1.87 0 0 0 .611-1.39v-.11h-2.538v-.655h3.115v.328c0 .858-.226 1.59-.774 2.11-.67.636-1.449.952-2.457.952s-1.786-.316-2.457-.952-1.004-1.374-1.004-2.329.334-1.693 1.004-2.329M41.192 0c-1.069 0-1.906.34-2.62 1.016-.714.677-1.072 1.47-1.072 2.484 0 1.013.358 1.807 1.072 2.484C39.286 6.66 40.123 7 41.192 7s1.906-.34 2.62-1.016c.607-.575.842-1.373.842-2.265v-.547h-3.577v1.094h2.535a1.66 1.66 0 0 1-.54 1.125 2.6 2.6 0 0 1-.856.564c-.3.117-.631.17-1.024.17-.651 0-1.202-.308-1.774-.742-.54-.41-.764-1.028-.764-1.774 0-.745.224-1.364.764-1.774l.01-.007.008-.01c.434-.514 1.088-.724 1.756-.724.78 0 1.321.209 1.756.724l.08.096.736-.697-.053-.075C43.464.79 43.095.561 42.63.34A3.3 3.3 0 0 0 41.192 0m28.582 1.171C70.444.535 71.223.22 72.23.22s1.786.316 2.457.952 1.004 1.374 1.004 2.329-.334 1.693-1.004 2.329c-.671.636-1.45.952-2.457.952-1.008 0-1.786-.316-2.457-.952s-1.004-1.375-1.004-2.33.334-1.693 1.005-2.329M72.23 0c-1.07 0-1.906.34-2.62 1.016-.714.677-1.073 1.47-1.073 2.484 0 1.013.359 1.807 1.073 2.484C70.325 6.66 71.16 7 72.23 7c1.069 0 1.906-.34 2.62-1.016.714-.677 1.072-1.47 1.072-2.484 0-1.013-.358-1.807-1.072-2.484C74.137.34 73.3 0 72.23 0M49.96.11h-4.269v6.78h4.27V5.798h-3.116v-1.86h2.885v-.984h-2.885v-1.86h3.116zm-.23 6.562h-3.808V.328h3.808v.547h-3.116v2.297H49.5v.547h-2.885v2.297h3.116zm6-6.563h-5.077v.985h1.961V6.89h1.154V1.094h1.962zm-4.846.766V.328H55.5v.547h-1.962v5.797h-.692V.875zM60 .109h-1.154v6.782H60zm-.23 6.563h-.693V.328h.692zM78.18.109h-1.22v6.782H78V1.799l3.398 5.092H82.5V.109h-1.154v4.865zm-.41 6.563h-.578V.328h.859l3.526 5.417V.328h.692v6.344h-.744L77.77 1.044zM72.23.766c-.714 0-1.442.225-1.931.802A2.68 2.68 0 0 0 69.46 3.5c0 .784.237 1.476.847 1.941.479.452 1.197.793 1.923.793.714 0 1.443-.225 1.932-.802A2.68 2.68 0 0 0 75 3.5c0-.784-.236-1.476-.846-1.941-.479-.452-1.197-.793-1.923-.793m-1.755.943c.433-.514 1.088-.725 1.756-.725.656 0 1.32.313 1.764.734l.005.004.005.004c.54.41.764 1.029.764 1.774 0 .734-.332 1.363-.774 1.782l-.004.004-.004.005c-.434.514-1.088.725-1.756.725-.656 0-1.32-.313-1.765-.734l-.004-.004-.005-.004c-.54-.41-.765-1.029-.765-1.774 0-.734.332-1.363.774-1.782l.005-.004z" clip-rule="evenodd"/><path fill="#fff" d="M63.577 6.672H63V.875h-1.962V.328h4.5v.547h-1.961z"/><path fill="#fff" fill-rule="evenodd" d="M65.77.11h-4.962v.984h1.961V6.89h1.039V1.094h1.961zM63 6.671h.577V.875h1.962V.328h-4.5v.547H63z" clip-rule="evenodd"/><path fill="#fff" d="M77.192 6.672V.328h.859l3.526 5.417V.328h.692v6.344h-.744L77.77 1.044v5.628zM50.885.875V.328H55.5v.547h-1.962v5.797h-.692V.875zm-4.962 5.797V.328h3.808v.547h-3.116v2.297H49.5v.547h-2.885v2.297h3.116v.656zm-7.188-5.501c.671-.636 1.45-.952 2.457-.952q.663-.001 1.333.316c.42.2.727.39.94.656l-.42.397c-.473-.51-1.064-.713-1.853-.713-.712 0-1.439.224-1.928.797-.606.465-.84 1.156-.84 1.937 0 .786.237 1.48.85 1.945.582.441 1.185.79 1.918.79a3 3 0 0 0 1.111-.186c.335-.13.636-.33.932-.612a1.87 1.87 0 0 0 .611-1.39v-.11h-2.538v-.655h3.115v.328c0 .858-.226 1.59-.774 2.11-.67.636-1.449.952-2.457.952s-1.786-.316-2.457-.952-1.004-1.374-1.004-2.329.334-1.693 1.004-2.329m29.361 16.391c-2.809 0-5.032 2.13-5.032 5.089 0 2.84 2.223 5.089 5.032 5.089 2.808 0 5.032-2.13 5.032-5.09 0-3.076-2.224-5.088-5.032-5.088m0 8.047c-1.522 0-2.809-1.301-2.809-3.077 0-1.775 1.287-3.076 2.809-3.076 1.521 0 2.808 1.183 2.808 3.076 0 1.776-1.287 3.078-2.808 3.078m-10.883-8.047c-2.809 0-5.032 2.13-5.032 5.089 0 2.84 2.223 5.089 5.032 5.089 2.808 0 5.032-2.13 5.032-5.09 0-3.076-2.224-5.088-5.032-5.088m0 8.047c-1.522 0-2.809-1.301-2.809-3.077 0-1.775 1.287-3.076 2.809-3.076 1.521 0 2.808 1.183 2.808 3.076 0 1.776-1.287 3.078-2.808 3.078m-12.99-6.508v2.13h5.032c-.117 1.183-.585 2.13-1.17 2.722-.702.71-1.872 1.538-3.862 1.538-3.16 0-5.5-2.485-5.5-5.68 0-3.196 2.458-5.68 5.5-5.68 1.639 0 2.926.71 3.862 1.538l1.521-1.539C48.32 12.947 46.681 12 44.34 12c-4.212 0-7.84 3.55-7.84 7.81 0 4.261 3.628 7.811 7.84 7.811 2.34 0 3.98-.71 5.383-2.248 1.405-1.42 1.873-3.432 1.873-4.97 0-.474 0-.947-.117-1.302zm53.128 1.656c-.468-1.183-1.638-3.195-4.213-3.195-2.574 0-4.68 2.012-4.68 5.089 0 2.84 2.106 5.089 4.914 5.089 2.224 0 3.628-1.42 4.096-2.249L95.83 24.31c-.585.828-1.287 1.42-2.458 1.42-1.17 0-1.872-.474-2.457-1.539l6.67-2.84zm-6.787 1.657c0-1.893 1.521-2.958 2.574-2.958.82 0 1.639.473 1.873 1.065zm-5.5 4.852h2.223V12.473h-2.223zm-3.51-8.639c-.586-.591-1.522-1.183-2.692-1.183-2.458 0-4.798 2.248-4.798 5.089 0 2.84 2.223 4.97 4.798 4.97 1.17 0 2.106-.592 2.574-1.183h.117v.71c0 1.893-1.053 2.958-2.691 2.958-1.287 0-2.224-.947-2.458-1.775l-1.872.828c.585 1.302 1.99 2.959 4.447 2.959 2.574 0 4.68-1.538 4.68-5.207v-8.994h-2.106zm-2.575 6.983c-1.522 0-2.809-1.302-2.809-3.078s1.287-3.076 2.809-3.076c1.521 0 2.691 1.301 2.691 3.076s-1.17 3.076-2.69 3.076m28.553-13.137h-5.266v14.793h2.223v-5.562h3.043c2.457 0 4.798-1.775 4.798-4.615s-2.341-4.616-4.798-4.616m.117 7.101h-3.16v-5.089h3.16c1.638 0 2.574 1.42 2.574 2.485-.117 1.302-1.053 2.604-2.574 2.604m13.457-2.13c-1.638 0-3.276.71-3.861 2.248l1.989.829c.468-.829 1.17-1.065 1.989-1.065 1.171 0 2.224.71 2.341 1.893v.119c-.351-.237-1.287-.592-2.224-.592-2.106 0-4.212 1.183-4.212 3.313 0 2.012 1.755 3.314 3.627 3.314 1.522 0 2.224-.71 2.809-1.42h.117v1.183h2.106v-5.68c-.234-2.604-2.223-4.142-4.681-4.142m-.234 8.166c-.702 0-1.755-.356-1.755-1.302 0-1.184 1.287-1.539 2.34-1.539.937 0 1.405.237 1.99.474-.234 1.42-1.404 2.367-2.575 2.367m12.288-7.811-2.458 6.39h-.117l-2.574-6.39h-2.341l3.862 8.994-2.223 4.97h2.223L135.5 17.8zm-19.66 9.467h2.223V12.473H113.5z"/><path fill="url(#a)" d="M.967.817C.617 1.167.5 1.75.5 2.45v25.787c0 .7.233 1.283.583 1.633l.117.117 14.47-14.468v-.234z"/><path fill="url(#b)" d="m20.336 20.42-4.784-4.785v-.35l4.784-4.784.117.117 5.717 3.267c1.633.933 1.633 2.45 0 3.384z"/><path fill="url(#c)" d="m20.452 20.303-4.9-4.901L.967 29.987c.583.583 1.4.583 2.45.117z"/><path fill="url(#d)" d="M20.452 10.501 3.417.817C2.367.233 1.55.35.967.933l14.585 14.469z"/><path fill="#0C0C0C" d="M20.336 20.186 3.417 29.754c-.933.583-1.75.466-2.334 0l-.116.116.116.117c.584.467 1.4.583 2.334 0z" opacity="0.2"/><path fill="#0C0C0C" d="M.967 29.754C.617 29.404.5 28.82.5 28.12v.117c0 .7.233 1.283.583 1.633v-.116zM26.17 16.919l-5.834 3.267.117.116 5.717-3.267c.817-.466 1.167-1.05 1.167-1.633 0 .583-.467 1.05-1.167 1.517" opacity="0.12"/><path fill="#fff" d="M3.417.933 26.17 13.885c.7.467 1.167.933 1.167 1.517 0-.584-.35-1.167-1.167-1.634L3.417.817C1.783-.117.5.583.5 2.45v.117C.5.817 1.783 0 3.417.933" opacity="0.25"/><defs><linearGradient id="a" x1="14.2684" x2="-5.31422" y1="2.22849" y2="21.8099" gradientUnits="userSpaceOnUse"><stop stop-color="#00A0FF"/><stop offset="0.007" stop-color="#00A1FF"/><stop offset="0.26" stop-color="#00BEFF"/><stop offset="0.512" stop-color="#00D2FF"/><stop offset="0.76" stop-color="#00DFFF"/><stop offset="1" stop-color="#00E3FF"/></linearGradient><linearGradient id="b" x1="28.3098" x2="0.0764704" y1="15.403" y2="15.403" gradientUnits="userSpaceOnUse"><stop stop-color="#FFE000"/><stop offset="0.409" stop-color="#FFBD00"/><stop offset="0.775" stop-color="orange"/><stop offset="1" stop-color="#FF9C00"/></linearGradient><linearGradient id="c" x1="17.8003" x2="-8.75402" y1="18.0809" y2="44.6351" gradientUnits="userSpaceOnUse"><stop stop-color="#FF3A44"/><stop offset="1" stop-color="#C31162"/></linearGradient><linearGradient id="d" x1="-2.65394" x2="9.20436" y1="-7.72906" y2="4.12924" gradientUnits="userSpaceOnUse"><stop stop-color="#32A071"/><stop offset="0.069" stop-color="#2DA771"/><stop offset="0.476" stop-color="#15CF74"/><stop offset="0.801" stop-color="#06E775"/><stop offset="1" stop-color="#00F076"/></linearGradient></defs></svg>