<svg aria-hidden="true" style="position: absolute; width: 0; height: 0; overflow: hidden;" version="1.1" xmlns="http://www.w3.org/2000/svg" xmlns:xlink="http://www.w3.org/1999/xlink">
<defs>
<symbol id="icon-arrow-left" viewBox="0 0 31 32">
<path fill="currentColor" d="M21.593 4.701c0.669 0.68 0.669 1.783 0 2.463l-9.074 9.218 9.074 9.218c0.669 0.68 0.669 1.783 0 2.463s-1.755 0.68-2.424 0l-10.286-10.449c-0.669-0.68-0.669-1.783 0-2.463l10.286-10.449c0.669-0.68 1.755-0.68 2.424 0z"></path>
</symbol>
<symbol id="icon-arrow-right" viewBox="0 0 31 32">
<path fill="currentColor" d="M8.883 28.061c-0.669-0.68-0.669-1.783 0-2.463l9.074-9.218-9.074-9.218c-0.669-0.68-0.669-1.783 0-2.463s1.755-0.68 2.424 0l10.286 10.449c0.669 0.68 0.669 1.783 0 2.463l-10.286 10.449c-0.669 0.68-1.755 0.68-2.424 0z"></path>
</symbol>
<symbol id="icon-accordion-open" viewBox="0 0 32 32">
<path fill="#7c1f45" style="fill: var(--color1, #7c1f45)" d="M16 27.333c-1.105 0-2-0.895-2-2v-18.667c0-1.105 0.895-2 2-2s2 0.895 2 2v18.667c0 1.105-0.895 2-2 2z"></path>
<path fill="#7c1f45" style="fill: var(--color1, #7c1f45)" d="M4.667 16c0-1.105 0.895-2 2-2h18.667c1.105 0 2 0.895 2 2s-0.895 2-2 2h-18.667c-1.105 0-2-0.895-2-2z"></path>
</symbol>
<symbol id="icon-rating-star" viewBox="0 0 34 32">
<path fill="#f6a00a" style="fill: var(--color3, #f6a00a)" d="M16.842 0l3.781 11.638h12.237l-9.9 7.192 3.781 11.638-9.9-7.192-9.9 7.192 3.781-11.638-9.9-7.192h12.236l3.781-11.638z"></path>
</symbol>
<symbol id="home-icon" fill="none" viewBox="0 0 20 21">
<path fill-rule="evenodd" clip-rule="evenodd" d="M9.46389 3.19575L3.62875 8.19646C3.53617 8.2747 3.46176 8.3722 3.41073 8.48216C3.35971 8.59212 3.33329 8.71188 3.33332 8.83311V16.3333C3.33332 16.5543 3.42112 16.7663 3.5774 16.9226C3.73368 17.0788 3.94564 17.1666 4.16666 17.1666H6.66666V11.3333C6.66666 10.8913 6.84225 10.4674 7.15481 10.1548C7.46737 9.84224 7.8913 9.66664 8.33332 9.66664H11.6667C12.1087 9.66664 12.5326 9.84224 12.8452 10.1548C13.1577 10.4674 13.3333 10.8913 13.3333 11.3333V17.1666H15.8333C16.0543 17.1666 16.2663 17.0788 16.4226 16.9226C16.5789 16.7663 16.6667 16.5543 16.6667 16.3333V8.83331C16.6667 8.71208 16.6403 8.59212 16.5892 8.48216C16.5382 8.3722 16.4638 8.27469 16.3712 8.19644L16.3669 8.19275L10.5379 3.19727C10.5373 3.19676 10.5367 3.19625 10.5361 3.19574C10.386 3.06959 10.1961 3.00041 9.99999 3.00041C9.80385 3.00041 9.61401 3.06959 9.46389 3.19575ZM11.6667 17.1666V11.3333H8.33332V17.1666H11.6667ZM15.8333 18.8333C16.4964 18.8333 17.1323 18.5699 17.6011 18.1011C18.0699 17.6322 18.3333 16.9963 18.3333 16.3333V8.83351C18.3333 8.83344 18.3333 8.83357 18.3333 8.83351C18.3334 8.46991 18.2541 8.11048 18.1011 7.78065C17.9485 7.45171 17.7261 7.15991 17.4494 6.92551C17.4487 6.92484 17.4479 6.92417 17.4471 6.92351L11.6181 1.92805L11.6137 1.92434C11.1625 1.54298 10.5908 1.33374 9.99999 1.33374C9.40919 1.33374 8.83747 1.54298 8.38624 1.92434L2.55048 6.92556C2.27385 7.15996 2.05151 7.45173 1.89889 7.78065C1.74585 8.11047 1.6666 8.46971 1.66666 8.83331C1.66666 8.83324 1.66666 8.83337 1.66666 8.83331V16.3333C1.66666 16.9963 1.93005 17.6322 2.39889 18.1011C2.86773 18.5699 3.50361 18.8333 4.16666 18.8333H15.8333Z" fill="currentColor"></path>
</symbol>
</svg>
</defs>
</svg>
