<svg aria-hidden="true" style="position: absolute; width: 0; height: 0; overflow: hidden;" version="1.1" xmlns="http://www.w3.org/2000/svg" xmlns:xlink="http://www.w3.org/1999/xlink">
<defs>
<symbol id="icon-Expand-Icon" viewBox="0 0 32 32">
<path fill="#7c1f45" style="fill: var(--color1, #7c1f45)" d="M7.986 24.014c-0.781-0.781-0.781-2.047 0-2.828l13.199-13.199c0.781-0.781 2.047-0.781 2.828 0s0.781 2.047 0 2.828l-13.199 13.199c-0.781 0.781-2.047 0.781-2.828 0z"></path>
<path fill="#7c1f45" style="fill: var(--color1, #7c1f45)" d="M7.986 7.986c0.781-0.781 2.047-0.781 2.828 0l13.199 13.199c0.781 0.781 0.781 2.047 0 2.828s-2.047 0.781-2.828 0l-13.199-13.199c-0.781-0.781-0.781-2.047 0-2.828z"></path>
</symbol>
<symbol id="icon-arrow-left" viewBox="0 0 31 32">
<path fill="#7c1f45" style="fill: var(--color1, #7c1f45)" d="M21.593 4.701c0.669 0.68 0.669 1.783 0 2.463l-9.074 9.218 9.074 9.218c0.669 0.68 0.669 1.783 0 2.463s-1.755 0.68-2.424 0l-10.286-10.449c-0.669-0.68-0.669-1.783 0-2.463l10.286-10.449c0.669-0.68 1.755-0.68 2.424 0z"></path>
</symbol>
<symbol id="icon-arrow-right" viewBox="0 0 31 32">
<path fill="#7c1f45" style="fill: var(--color1, #7c1f45)" d="M8.883 28.061c-0.669-0.68-0.669-1.783 0-2.463l9.074-9.218-9.074-9.218c-0.669-0.68-0.669-1.783 0-2.463s1.755-0.68 2.424 0l10.286 10.449c0.669 0.68 0.669 1.783 0 2.463l-10.286 10.449c-0.669 0.68-1.755 0.68-2.424 0z"></path>
</symbol>
<symbol id="icon-burger-close" viewBox="0 0 32 32">
<path fill="none" stroke="#fff" style="stroke: var(--color2, #fff)" stroke-linejoin="round" stroke-linecap="round" stroke-miterlimit="4" stroke-width="2.6667" d="M8 8l16.971 16.971"></path>
<path fill="none" stroke="#fff" style="stroke: var(--color2, #fff)" stroke-linejoin="round" stroke-linecap="round" stroke-miterlimit="4" stroke-width="2.6667" d="M8 25.333l16.971-16.971"></path>
</symbol>
<symbol id="icon-burger" viewBox="0 0 32 32">
<path fill="none" stroke="#fff" style="stroke: var(--color2, #fff)" stroke-linejoin="round" stroke-linecap="round" stroke-miterlimit="4" stroke-width="2.6667" d="M4 16h24"></path>
<path fill="none" stroke="#fff" style="stroke: var(--color2, #fff)" stroke-linejoin="round" stroke-linecap="round" stroke-miterlimit="4" stroke-width="2.6667" d="M4 24h24"></path>
<path fill="none" stroke="#fff" style="stroke: var(--color2, #fff)" stroke-linejoin="round" stroke-linecap="round" stroke-miterlimit="4" stroke-width="2.6667" d="M4 8h24"></path>
</symbol>
<symbol id="icon-accordion-open" viewBox="0 0 32 32">
<path fill="#7c1f45" style="fill: var(--color1, #7c1f45)" d="M16 27.333c-1.105 0-2-0.895-2-2v-18.667c0-1.105 0.895-2 2-2s2 0.895 2 2v18.667c0 1.105-0.895 2-2 2z"></path>
<path fill="#7c1f45" style="fill: var(--color1, #7c1f45)" d="M4.667 16c0-1.105 0.895-2 2-2h18.667c1.105 0 2 0.895 2 2s-0.895 2-2 2h-18.667c-1.105 0-2-0.895-2-2z"></path>
</symbol>
<symbol id="icon-rating-star" viewBox="0 0 34 32">
<path fill="#f6a00a" style="fill: var(--color3, #f6a00a)" d="M16.842 0l3.781 11.638h12.237l-9.9 7.192 3.781 11.638-9.9-7.192-9.9 7.192 3.781-11.638-9.9-7.192h12.236l3.781-11.638z"></path>
</symbol>
</defs>
</svg>
