<svg width="136" height="32" viewBox="0 0 136 32" fill="none" xmlns="http://www.w3.org/2000/svg">
<path fill-rule="evenodd" clip-rule="evenodd" d="M69.7739 1.17109C70.4445 0.535392 71.2229 0.21875 72.2308 0.21875C73.2387 0.21875 74.017 0.535392 74.6876 1.17109C75.3583 1.80679 75.6923 2.54458 75.6923 3.5C75.6923 4.45542 75.3583 5.19321 74.6876 5.82891C74.017 6.46461 73.2387 6.78125 72.2308 6.78125C71.2229 6.78125 70.4445 6.46461 69.7739 5.82891C69.1033 5.19321 68.7692 4.45542 68.7692 3.5C68.7692 2.54458 69.1033 1.80679 69.7739 1.17109ZM70.2985 1.56757C70.7879 0.991175 71.5162 0.765625 72.2308 0.765625C72.9568 0.765625 73.675 1.10706 74.154 1.55901C74.7638 2.02423 75 2.71636 75 3.5C75 4.29483 74.6418 4.97642 74.163 5.43243C73.6736 6.00883 72.9454 6.23437 72.2308 6.23437C71.5047 6.23437 70.7866 5.89294 70.3075 5.44098C69.6977 4.97576 69.4615 4.28364 69.4615 3.5C69.4615 2.70516 69.8197 2.02359 70.2985 1.56757Z" fill="white"/>
<path d="M59.0769 6.67188V0.328125H59.7692V6.67188H59.0769Z" fill="white"/>
<path fill-rule="evenodd" clip-rule="evenodd" d="M38.7354 1.17109C39.4061 0.535392 40.1844 0.21875 41.1923 0.21875C41.6339 0.21875 42.0779 0.323265 42.5253 0.535328C42.9446 0.734064 43.2519 0.92592 43.4648 1.19119L43.0459 1.58831C42.5717 1.07889 41.9808 0.875 41.1923 0.875C40.4797 0.875 39.7534 1.09931 39.2641 1.67221C38.658 2.13739 38.4231 2.82788 38.4231 3.60938C38.4231 4.39515 38.6606 5.08892 39.2741 5.55416C39.8558 5.99528 40.459 6.34375 41.1923 6.34375C41.6074 6.34375 41.9691 6.28749 42.3033 6.15787C42.6376 6.02823 42.9385 5.82752 43.2354 5.54609C43.6009 5.19971 43.8462 4.73517 43.8462 4.15625V4.04688H41.3077V3.39062H44.4231V3.71875C44.4231 4.57689 44.1968 5.30978 43.6492 5.82891C42.9786 6.46461 42.2002 6.78125 41.1923 6.78125C40.1844 6.78125 39.4061 6.46461 38.7354 5.82891C38.0648 5.19321 37.7308 4.45542 37.7308 3.5C37.7308 2.54458 38.0648 1.80679 38.7354 1.17109ZM41.1923 0C40.1233 0 39.2862 0.339608 38.5723 1.01641C37.8583 1.69321 37.5 2.48667 37.5 3.5C37.5 4.51333 37.8583 5.30679 38.5723 5.98359C39.2862 6.66039 40.1233 7 41.1923 7C42.2613 7 43.0984 6.66039 43.8124 5.98359C44.4186 5.40897 44.6538 4.61061 44.6538 3.71875V3.17187H41.0769V4.26563H43.6121C43.5837 4.72955 43.3757 5.10381 43.0723 5.39141C42.7922 5.65685 42.5162 5.83896 42.2159 5.95541C41.9156 6.07189 41.5849 6.125 41.1923 6.125C40.541 6.125 39.9904 5.81722 39.4182 5.38334C38.8779 4.97358 38.6538 4.35485 38.6538 3.60938C38.6538 2.8639 38.8779 2.24516 39.4182 1.83541L39.4282 1.82782L39.4363 1.81833C39.8699 1.30447 40.5242 1.09375 41.1923 1.09375C41.9726 1.09375 42.5131 1.3026 42.9484 1.81833L43.0289 1.91375L43.7639 1.21706L43.7114 1.14245C43.4635 0.789996 43.095 0.560754 42.6285 0.339672C42.1529 0.114234 41.6738 0 41.1923 0ZM69.7739 1.17109C70.4445 0.535392 71.2229 0.21875 72.2308 0.21875C73.2387 0.21875 74.017 0.535392 74.6876 1.17109C75.3583 1.80679 75.6923 2.54458 75.6923 3.5C75.6923 4.45542 75.3583 5.19321 74.6876 5.82891C74.017 6.46461 73.2387 6.78125 72.2308 6.78125C71.2229 6.78125 70.4445 6.46461 69.7739 5.82891C69.1033 5.19321 68.7692 4.45542 68.7692 3.5C68.7692 2.54458 69.1033 1.80679 69.7739 1.17109ZM72.2308 0C71.1618 0 70.3247 0.339608 69.6107 1.01641C68.8967 1.69321 68.5385 2.48667 68.5385 3.5C68.5385 4.51333 68.8967 5.30679 69.6107 5.98359C70.3247 6.66039 71.1618 7 72.2308 7C73.2998 7 74.1368 6.66039 74.8508 5.98359C75.5648 5.30679 75.9231 4.51333 75.9231 3.5C75.9231 2.48667 75.5648 1.69321 74.8508 1.01641C74.1368 0.339609 73.2998 0 72.2308 0ZM49.9615 0.109375H45.6923V6.89062H49.9615V5.79687H46.8462V3.9375H49.7308V2.95313H46.8462V1.09375H49.9615V0.109375ZM49.7308 6.67188H45.9231V0.328125H49.7308V0.875H46.6154V3.17188H49.5V3.71875H46.6154V6.01562H49.7308V6.67188ZM55.7308 0.109375H50.6538V1.09375H52.6154V6.89062H53.7692V1.09375H55.7308V0.109375ZM50.8846 0.875V0.328125H55.5V0.875H53.5385V6.67188H52.8462V0.875H50.8846ZM60 0.109375H58.8462V6.89062H60V0.109375ZM59.7692 6.67188H59.0769V0.328125H59.7692V6.67188ZM78.1798 0.109375H76.9615V6.89062H78V1.79934L81.398 6.89062H82.5V0.109375H81.3462V4.97382L78.1798 0.109375ZM77.7692 6.67188H77.1923V0.328125H78.051L81.5769 5.74493V0.328125H82.2692V6.67188H81.5251L77.7692 1.04442V6.67188ZM72.2308 0.765625C71.5162 0.765625 70.7879 0.991175 70.2985 1.56757C69.8197 2.02359 69.4615 2.70516 69.4615 3.5C69.4615 4.28364 69.6977 4.97576 70.3075 5.44098C70.7866 5.89294 71.5047 6.23437 72.2308 6.23437C72.9454 6.23437 73.6736 6.00883 74.163 5.43243C74.6418 4.97642 75 4.29483 75 3.5C75 2.71636 74.7638 2.02423 74.154 1.55901C73.675 1.10706 72.9568 0.765625 72.2308 0.765625ZM70.4747 1.70895C70.9084 1.19509 71.5627 0.984375 72.2308 0.984375C72.8871 0.984375 73.5513 1.29704 73.9953 1.71796L73.9999 1.72225L74.0048 1.72603C74.5452 2.13579 74.7692 2.75452 74.7692 3.5C74.7692 4.23392 74.4373 4.86306 73.9953 5.28203L73.9908 5.28632L73.9868 5.29105C73.5532 5.80491 72.8988 6.01562 72.2308 6.01562C71.5745 6.01562 70.9103 5.70296 70.4662 5.28203L70.4617 5.27775L70.4567 5.27397C69.9164 4.86421 69.6923 4.24548 69.6923 3.5C69.6923 2.76608 70.0242 2.13694 70.4662 1.71796L70.4707 1.71368L70.4747 1.70895Z" fill="white"/>
<path d="M63.5769 6.67188H63V0.875H61.0385V0.328125H65.5385V0.875H63.5769V6.67188Z" fill="white"/>
<path fill-rule="evenodd" clip-rule="evenodd" d="M65.7692 0.109375H60.8077V1.09375H62.7692V6.89062H63.8077L63.8077 1.09375H65.7692V0.109375ZM63 6.67188H63.5769V0.875H65.5385V0.328125H61.0385V0.875H63V6.67188Z" fill="white"/>
<path d="M77.1923 6.67188V0.328125H78.051L81.5769 5.74493V0.328125H82.2692V6.67188H81.5251L77.7692 1.04442V6.67188H77.1923Z" fill="white"/>
<path d="M50.8846 0.875V0.328125H55.5V0.875H53.5385V6.67188H52.8462V0.875H50.8846Z" fill="white"/>
<path d="M45.9231 6.67188V0.328125H49.7308V0.875H46.6154V3.17188H49.5V3.71875H46.6154V6.01562H49.7308V6.67188H45.9231Z" fill="white"/>
<path d="M38.7354 1.17109C39.4061 0.535392 40.1844 0.21875 41.1923 0.21875C41.6339 0.21875 42.0779 0.323265 42.5253 0.535328C42.9446 0.734064 43.2519 0.92592 43.4648 1.19119L43.0459 1.58831C42.5717 1.07889 41.9808 0.875 41.1923 0.875C40.4797 0.875 39.7534 1.09931 39.2641 1.67221C38.658 2.13739 38.4231 2.82788 38.4231 3.60938C38.4231 4.39515 38.6606 5.08892 39.2741 5.55416C39.8558 5.99528 40.459 6.34375 41.1923 6.34375C41.6074 6.34375 41.9691 6.28749 42.3033 6.15787C42.6376 6.02823 42.9385 5.82752 43.2354 5.54609C43.6009 5.19971 43.8462 4.73517 43.8462 4.15625V4.04688H41.3077V3.39062H44.4231V3.71875C44.4231 4.57689 44.1968 5.30978 43.6492 5.82891C42.9786 6.46461 42.2002 6.78125 41.1923 6.78125C40.1844 6.78125 39.4061 6.46461 38.7354 5.82891C38.0648 5.19321 37.7308 4.45542 37.7308 3.5C37.7308 2.54458 38.0648 1.80679 38.7354 1.17109Z" fill="white"/>
<path d="M68.0957 17.5621C65.2872 17.5621 63.0638 19.6923 63.0638 22.6509C63.0638 25.4911 65.2872 27.7396 68.0957 27.7396C70.9043 27.7396 73.1277 25.6095 73.1277 22.6509C73.1277 19.574 70.9043 17.5621 68.0957 17.5621ZM68.0957 25.6095C66.5745 25.6095 65.2872 24.3077 65.2872 22.5325C65.2872 20.7574 66.5745 19.4556 68.0957 19.4556C69.617 19.4556 70.9043 20.6391 70.9043 22.5325C70.9043 24.3077 69.617 25.6095 68.0957 25.6095ZM57.2128 17.5621C54.4043 17.5621 52.1809 19.6923 52.1809 22.6509C52.1809 25.4911 54.4043 27.7396 57.2128 27.7396C60.0213 27.7396 62.2447 25.6095 62.2447 22.6509C62.2447 19.574 60.0213 17.5621 57.2128 17.5621ZM57.2128 25.6095C55.6915 25.6095 54.4043 24.3077 54.4043 22.5325C54.4043 20.7574 55.6915 19.4556 57.2128 19.4556C58.734 19.4556 60.0213 20.6391 60.0213 22.5325C60.0213 24.3077 58.734 25.6095 57.2128 25.6095ZM44.2234 19.1006V21.2308H49.2553C49.1383 22.4142 48.6702 23.3609 48.0851 23.9527C47.383 24.6627 46.2128 25.4911 44.2234 25.4911C41.0638 25.4911 38.7234 23.0059 38.7234 19.8107C38.7234 16.6154 41.1809 14.1302 44.2234 14.1302C45.8617 14.1302 47.1489 14.8402 48.0851 15.6686L49.6064 14.1302C48.3191 12.9467 46.6809 12 44.3404 12C40.1277 12 36.5 15.5503 36.5 19.8107C36.5 24.071 40.1277 27.6213 44.3404 27.6213C46.6809 27.6213 48.3192 26.9112 49.7234 25.3728C51.1277 23.9527 51.5957 21.9408 51.5957 20.4024C51.5957 19.929 51.5957 19.4556 51.4787 19.1006H44.2234ZM97.3511 20.7574C96.883 19.574 95.7128 17.5621 93.1383 17.5621C90.5638 17.5621 88.4574 19.574 88.4574 22.6509C88.4574 25.4911 90.5638 27.7396 93.3723 27.7396C95.5957 27.7396 97 26.3195 97.4681 25.4911L95.8298 24.3077C95.2447 25.1361 94.5425 25.7278 93.3723 25.7278C92.2021 25.7278 91.5 25.2544 90.9149 24.1893L97.5851 21.3491L97.3511 20.7574ZM90.5638 22.4142C90.5638 20.5207 92.0851 19.4556 93.1383 19.4556C93.9574 19.4556 94.7766 19.929 95.0106 20.5207L90.5638 22.4142ZM85.0638 27.2663H87.2872V12.4734H85.0638V27.2663ZM81.5532 18.6272C80.9681 18.0355 80.0319 17.4438 78.8617 17.4438C76.4043 17.4438 74.0638 19.6923 74.0638 22.5325C74.0638 25.3728 76.2872 27.503 78.8617 27.503C80.0319 27.503 80.9681 26.9112 81.4362 26.3195H81.5532V27.0296C81.5532 28.9231 80.5 29.9882 78.8617 29.9882C77.5745 29.9882 76.6383 29.0414 76.4043 28.213L74.5319 29.0414C75.117 30.3432 76.5213 32 78.9787 32C81.5532 32 83.6596 30.4615 83.6596 26.7929V17.7988H81.5532V18.6272ZM78.9787 25.6095C77.4575 25.6095 76.1702 24.3077 76.1702 22.5325C76.1702 20.7574 77.4575 19.4556 78.9787 19.4556C80.5 19.4556 81.6702 20.7574 81.6702 22.5325C81.6702 24.3077 80.5 25.6095 78.9787 25.6095ZM107.532 12.4734H102.266V27.2663H104.489V21.7041H107.532C109.989 21.7041 112.33 19.929 112.33 17.0888C112.33 14.2485 109.989 12.4734 107.532 12.4734ZM107.649 19.574H104.489V14.4852H107.649C109.287 14.4852 110.223 15.9053 110.223 16.9704C110.106 18.2722 109.17 19.574 107.649 19.574ZM121.106 17.4438C119.468 17.4438 117.83 18.1538 117.245 19.6923L119.234 20.5207C119.702 19.6923 120.404 19.4556 121.223 19.4556C122.394 19.4556 123.447 20.1657 123.564 21.3491V21.4675C123.213 21.2308 122.277 20.8757 121.34 20.8757C119.234 20.8757 117.128 22.0592 117.128 24.1893C117.128 26.2012 118.883 27.503 120.755 27.503C122.277 27.503 122.979 26.7929 123.564 26.0828H123.681V27.2663H125.787V21.5858C125.553 18.9822 123.564 17.4438 121.106 17.4438ZM120.872 25.6095C120.17 25.6095 119.117 25.2544 119.117 24.3077C119.117 23.1243 120.404 22.7692 121.457 22.7692C122.394 22.7692 122.862 23.0059 123.447 23.2426C123.213 24.6627 122.043 25.6095 120.872 25.6095ZM133.16 17.7988L130.702 24.1893H130.585L128.011 17.7988H125.67L129.532 26.7929L127.309 31.7633H129.532L135.5 17.7988H133.16ZM113.5 27.2663H115.723V12.4734H113.5V27.2663Z" fill="white"/>
<path d="M0.966724 0.81665C0.616681 1.16669 0.5 1.7501 0.5 2.45018V28.2367C0.5 28.9368 0.733362 29.5202 1.08341 29.8702L1.20009 29.9869L15.6685 15.5185V15.2851L0.966724 0.81665Z" fill="url(#paint0_linear_2059_140)"/>
<path d="M20.3358 20.4191L15.5519 15.6352V15.2851L20.3358 10.5012L20.4525 10.6179L26.1699 13.885C27.8034 14.8184 27.8034 16.3353 26.1699 17.2687L20.3358 20.4191Z" fill="url(#paint1_linear_2059_140)"/>
<path d="M20.4524 20.3025L15.5518 15.4019L0.966675 29.987C1.55008 30.5704 2.36685 30.5704 3.41698 30.1037L20.4524 20.3025Z" fill="url(#paint2_linear_2059_140)"/>
<path d="M20.4524 10.5012L3.41698 0.816666C2.36685 0.23326 1.55008 0.349941 0.966675 0.933347L15.5518 15.4018L20.4524 10.5012Z" fill="url(#paint3_linear_2059_140)"/>
<path opacity="0.2" d="M20.3357 20.1858L3.41698 29.7536C2.48353 30.337 1.66676 30.2204 1.08336 29.7536L0.966675 29.8703L1.08336 29.987C1.66676 30.4537 2.48353 30.5704 3.41698 29.987L20.3357 20.1858Z" fill="#0C0C0C"/>
<path opacity="0.12" d="M0.966724 29.7536C0.616681 29.4036 0.5 28.8202 0.5 28.1201V28.2368C0.5 28.9369 0.733362 29.5203 1.08341 29.8703V29.7536H0.966724ZM26.1698 16.9187L20.3358 20.1858L20.4525 20.3025L26.1698 17.0354C26.9866 16.5687 27.3366 15.9853 27.3366 15.4019C27.3366 15.9853 26.8699 16.452 26.1698 16.9187Z" fill="#0C0C0C"/>
<path opacity="0.25" d="M3.41703 0.933372L26.1698 13.885C26.8699 14.3517 27.3366 14.8184 27.3366 15.4018C27.3366 14.8184 26.9866 14.235 26.1698 13.7683L3.41703 0.816691C1.78349 -0.116757 0.5 0.583328 0.5 2.45023V2.56691C0.5 0.816691 1.78349 -7.64132e-05 3.41703 0.933372Z" fill="white"/>
<defs>
<linearGradient id="paint0_linear_2059_140" x1="14.2684" y1="2.22849" x2="-5.31422" y2="21.8099" gradientUnits="userSpaceOnUse">
<stop stop-color="#00A0FF"/>
<stop offset="0.007" stop-color="#00A1FF"/>
<stop offset="0.26" stop-color="#00BEFF"/>
<stop offset="0.512" stop-color="#00D2FF"/>
<stop offset="0.76" stop-color="#00DFFF"/>
<stop offset="1" stop-color="#00E3FF"/>
</linearGradient>
<linearGradient id="paint1_linear_2059_140" x1="28.3098" y1="15.403" x2="0.0764704" y2="15.403" gradientUnits="userSpaceOnUse">
<stop stop-color="#FFE000"/>
<stop offset="0.409" stop-color="#FFBD00"/>
<stop offset="0.775" stop-color="#FFA500"/>
<stop offset="1" stop-color="#FF9C00"/>
</linearGradient>
<linearGradient id="paint2_linear_2059_140" x1="17.8003" y1="18.0809" x2="-8.75402" y2="44.6351" gradientUnits="userSpaceOnUse">
<stop stop-color="#FF3A44"/>
<stop offset="1" stop-color="#C31162"/>
</linearGradient>
<linearGradient id="paint3_linear_2059_140" x1="-2.65394" y1="-7.72906" x2="9.20436" y2="4.12924" gradientUnits="userSpaceOnUse">
<stop stop-color="#32A071"/>
<stop offset="0.069" stop-color="#2DA771"/>
<stop offset="0.476" stop-color="#15CF74"/>
<stop offset="0.801" stop-color="#06E775"/>
<stop offset="1" stop-color="#00F076"/>
</linearGradient>
</defs>
</svg>
